<svg width="395" height="104" viewBox="0 0 395 104" fill="none" xmlns="http://www.w3.org/2000/svg">
<mask id="mask0_154_1791" style="mask-type:luminance" maskUnits="userSpaceOnUse" x="0" y="0" width="104" height="104">
<path d="M103.811 0H0V103.811H103.811V0Z" fill="white"/>
</mask>
<g mask="url(#mask0_154_1791)">
<path d="M52.6994 10.9823C47.9468 15.7911 41.347 18.7697 34.0511 18.7697C31.639 18.7697 29.303 18.4436 27.0849 17.8343C26.4708 17.6666 25.8687 17.4773 25.2749 17.2655C22.4641 16.2683 19.8735 14.8034 17.5958 12.9649C15.7405 11.4714 14.0936 9.72804 12.7061 7.78598C16.3891 4.06129 21.18 1.43492 26.5458 0.44249C27.1301 0.331807 27.7215 0.243765 28.3201 0.175893C29.3149 0.0616511 30.3276 0.00218201 31.3546 0.00218201C40.1547 0.00218201 47.9444 4.33377 52.6994 10.9823Z" fill="#00BD0D"/>
<path d="M90.8647 7.66116L75.7695 22.7968L70.5241 28.0554C66.689 32.4311 61.4219 35.5227 55.4552 36.602C54.1927 36.8293 52.898 36.9685 51.5781 37.0054C51.5079 37.0054 51.4367 37.003 51.3665 36.9983C43.184 36.6805 35.957 32.6226 31.3565 26.4834L27.1724 22.372L17.5977 12.9626C19.8753 14.8012 22.4659 16.2661 25.2768 17.2633C25.8706 17.4751 26.4727 17.6643 27.0867 17.8321C29.3049 18.4414 31.6409 18.7675 34.053 18.7675C41.3477 18.7675 47.9486 15.7889 52.7017 10.98C52.7586 11.0598 52.6479 10.8979 52.7017 10.98C57.1913 4.4791 64.862 0.459244 73.3601 0.459244C73.9049 0.459244 74.4477 0.47709 74.9845 0.514017C75.5649 0.549708 76.1388 0.606804 76.7073 0.684168C82.1959 1.42078 87.1186 3.94833 90.8647 7.66116Z" fill="#94FFAB"/>
<path d="M92.5285 52.643C87.7201 47.8905 84.7412 41.2904 84.7412 33.9946C84.7412 31.5824 85.0675 29.2464 85.6765 27.0283C85.8446 26.4142 86.0339 25.8121 86.2455 25.2183C87.2426 22.4075 88.7078 19.8169 90.5462 17.5392C92.0396 15.684 93.7832 14.037 95.7249 12.6495C99.4498 16.3325 102.076 21.1235 103.069 26.4892C103.179 27.0735 103.268 27.6649 103.335 28.2635C103.449 29.2583 103.509 30.2711 103.509 31.298C103.509 40.0981 99.1769 47.888 92.5285 52.643Z" fill="#41BCF0"/>
<path d="M95.8522 90.8077L80.7166 75.7126L75.4583 70.4672C71.0824 66.6316 67.9908 61.3649 66.9117 55.3983C66.6843 54.1357 66.5449 52.8406 66.5083 51.5212C66.5083 51.451 66.5108 51.3793 66.5152 51.3091C66.8331 43.1268 70.8911 35.9 77.0303 31.2994L81.1417 27.1153L90.5509 17.5406C88.7125 19.8182 87.2473 22.4089 86.2502 25.2197C86.0386 25.8135 85.8493 26.4156 85.6817 27.0296C85.0722 29.2478 84.7459 31.5838 84.7459 33.9959C84.7459 41.2907 87.7248 47.8918 92.5337 52.6443C92.6158 52.5909 92.4536 52.7017 92.5337 52.6443C99.0367 57.1354 103.057 64.805 103.057 73.3027C103.057 73.848 103.039 74.3908 103.002 74.9271C102.966 75.508 102.909 76.0814 102.832 76.6504C102.095 82.1385 99.5652 87.0616 95.8522 90.8077Z" fill="#7CEBFF"/>
<path d="M10.9865 51.0244C15.7953 55.777 18.7739 62.3769 18.7739 69.6728C18.7739 72.0852 18.4478 74.4209 17.8385 76.639C17.6707 77.253 17.4815 77.8551 17.2697 78.4493C16.2725 81.2601 14.8076 83.8504 12.969 86.1283C11.4756 87.9836 9.73225 89.6302 7.79014 91.0178C4.06544 87.335 1.43911 82.5439 0.446648 77.1783C0.335978 76.594 0.247918 76.0023 0.180088 75.4037C0.0658477 74.4091 0.00634766 73.3962 0.00634766 72.3694C0.00634766 63.5692 4.33796 55.7794 10.9865 51.0244Z" fill="#E64A67"/>
<path d="M7.66473 12.8598L22.8004 27.955L28.059 33.2005C32.4346 37.0359 35.5262 42.3027 36.6056 48.2694C36.8329 49.5319 36.9721 50.8266 37.009 52.1465C37.009 52.2167 37.0066 52.2879 37.0019 52.3581C36.6841 60.5409 32.6262 67.7676 26.487 72.3684L22.3755 76.5525L12.9662 86.1268C14.8048 83.8494 16.2696 81.2586 17.2669 78.4478C17.4787 77.8541 17.6679 77.252 17.8357 76.638C18.445 74.4199 18.771 72.0837 18.771 69.6718C18.771 62.3768 15.7924 55.7759 10.9836 51.0234C11.0634 50.966 10.9015 51.0768 10.9836 51.0234C4.48028 46.5323 0.460449 38.8625 0.460449 30.3647C0.460449 29.8197 0.478299 29.277 0.515189 28.7403C0.55089 28.1596 0.608011 27.586 0.68536 27.0172C1.42197 21.5289 3.95191 16.6059 7.66473 12.8598Z" fill="#FF7F9C"/>
<path d="M51.124 92.8282C55.8771 88.0197 62.4765 85.0409 69.7724 85.0409C72.1848 85.0409 74.5206 85.3671 76.7387 85.9761C77.3526 86.1442 77.9552 86.3336 78.5489 86.5451C81.3597 87.5422 83.9501 89.0074 86.228 90.8459C88.0832 92.3393 89.7299 94.0828 91.1175 96.0246C87.4347 99.7494 82.6435 102.376 77.278 103.368C76.6937 103.479 76.1019 103.567 75.5038 103.635C74.5087 103.749 73.4963 103.808 72.4691 103.808C63.6688 103.808 55.8791 99.4765 51.124 92.8282Z" fill="#FF9B0F"/>
<path d="M12.9575 96.1492L28.0527 81.0136L33.2982 75.7553C37.1336 71.3794 42.4006 68.2878 48.3672 67.2087C49.6298 66.9813 50.9245 66.8419 52.2444 66.8053C52.3146 66.8053 52.3857 66.8073 52.4559 66.8122C60.6382 67.1301 67.8654 71.1881 72.4658 77.3273L76.6498 81.4387L86.2247 90.8479C83.9473 89.0095 81.3564 87.5443 78.5456 86.5472C77.9519 86.3356 77.3498 86.1463 76.7359 85.9782C74.5173 85.3692 72.1815 85.0429 69.7696 85.0429C62.4747 85.0429 55.8738 88.0218 51.1207 92.8302C51.1746 92.9128 51.0639 92.7506 51.1207 92.8302C46.6298 99.3337 38.9603 103.354 30.4624 103.354C29.9174 103.354 29.3748 103.336 28.8381 103.299C28.2574 103.263 27.6838 103.206 27.115 103.129C21.6267 102.392 16.7036 99.8622 12.9575 96.1492Z" fill="#FFD24C"/>
</g>
<path d="M174.89 16.2242C183.174 16.2242 189.818 18.6439 194.821 23.4833C199.825 28.3227 202.326 35.4998 202.326 45.0145V82.6634H186.947V46.9832C186.947 41.2414 185.594 36.9352 182.887 34.0644C180.18 31.1115 176.325 29.6351 171.322 29.6351C165.662 29.6351 161.192 31.3576 157.911 34.8026C154.63 38.1655 152.989 43.0459 152.989 49.4439V82.6634H137.61V16.9625H152.251V25.4519C154.794 22.417 157.993 20.1204 161.848 18.5619C165.703 17.0035 170.05 16.2242 174.89 16.2242ZM244.584 83.5246C237.94 83.5246 231.952 82.0892 226.62 79.2184C221.288 76.3476 217.105 72.3694 214.07 67.284C211.118 62.1165 209.641 56.2928 209.641 49.813C209.641 43.333 211.118 37.5503 214.07 32.4649C217.105 27.3795 221.288 23.4013 226.62 20.5305C231.952 17.6597 237.94 16.2242 244.584 16.2242C251.309 16.2242 257.338 17.6597 262.67 20.5305C268.001 23.4013 272.144 27.3795 275.096 32.4649C278.131 37.5503 279.649 43.333 279.649 49.813C279.649 56.2928 278.131 62.1165 275.096 67.284C272.144 72.3694 268.001 76.3476 262.67 79.2184C257.338 82.0892 251.309 83.5246 244.584 83.5246ZM244.584 70.3599C250.243 70.3599 254.919 68.4733 258.61 64.7002C262.301 60.9272 264.146 55.9647 264.146 49.813C264.146 43.6611 262.301 38.6987 258.61 34.9256C254.919 31.1525 250.243 29.266 244.584 29.266C238.924 29.266 234.249 31.1525 230.558 34.9256C226.948 38.6987 225.144 43.6611 225.144 49.813C225.144 55.9647 226.948 60.9272 230.558 64.7002C234.249 68.4733 238.924 70.3599 244.584 70.3599ZM301.614 26.5592C306.044 19.6692 313.835 16.2242 324.991 16.2242V30.8654C323.678 30.6194 322.489 30.4963 321.423 30.4963C315.435 30.4963 310.76 32.2598 307.397 35.7869C304.033 39.2318 302.353 44.2353 302.353 50.7973V82.6634H286.972V16.9625H301.614V26.5592ZM394.28 16.9625V82.6634H379.638V74.174C377.094 77.2909 373.938 79.6285 370.163 81.187C366.472 82.7454 362.371 83.5246 357.861 83.5246C351.463 83.5246 345.721 82.1302 340.636 79.3414C335.632 76.5526 331.695 72.6155 328.824 67.5301C326.035 62.4446 324.641 56.5389 324.641 49.813C324.641 43.0869 326.035 37.2223 328.824 32.2188C331.695 27.1334 335.632 23.1963 340.636 20.4074C345.721 17.6186 351.463 16.2242 357.861 16.2242C362.125 16.2242 366.02 16.9625 369.548 18.4389C373.159 19.9153 376.273 22.089 378.901 24.9597V16.9625H394.28ZM359.583 70.3599C365.242 70.3599 369.92 68.4733 373.611 64.7002C377.302 60.9272 379.147 55.9647 379.147 49.813C379.147 43.6611 377.302 38.6987 373.611 34.9256C369.92 31.1525 365.242 29.266 359.583 29.266C353.924 29.266 349.248 31.1525 345.557 34.9256C341.947 38.6987 340.144 43.6611 340.144 49.813C340.144 55.9647 341.947 60.9272 345.557 64.7002C349.248 68.4733 353.924 70.3599 359.583 70.3599Z" fill="#101828"/>
</svg>
